<svg xmlns="http://www.w3.org/2000/svg" viewBox="0 0 184 131" fill="currentColor" role="img" aria-label="Virgo">
  <g stroke="currentColor" stroke-width="0.9" stroke-linecap="round" opacity="0.45">
    <line x1="180.6" y1="21.3" x2="147.2" y2="50.1"/>
    <line x1="147.2" y1="50.1" x2="125.8" y2="53.2"/>
    <line x1="125.8" y1="53.2" x2="83.1" y2="92.1"/>
    <line x1="83.1" y1="92.1" x2="36.3" y2="88.5"/>
    <line x1="36.3" y1="88.5" x2="33.3" y2="71.4"/>
    <line x1="33.3" y1="71.4" x2="6.7" y2="70.1"/>
    <line x1="83.1" y1="92.1" x2="73.8" y2="49.8"/>
    <line x1="73.8" y1="49.8" x2="47.4" y2="41.3"/>
    <line x1="47.4" y1="41.3" x2="3.6" y2="39.9"/>
    <line x1="73.8" y1="49.8" x2="112.2" y2="33.8"/>
    <line x1="112.2" y1="33.8" x2="105.7" y2="3.6"/>
    <line x1="112.2" y1="33.8" x2="125.8" y2="53.2"/>
  </g>
  <circle cx="180.6" cy="21.3" r="2.6"/>
  <circle cx="147.2" cy="50.1" r="2.6"/>
  <circle cx="125.8" cy="53.2" r="2.6"/>
  <circle cx="36.3" cy="88.5" r="2.6"/>
  <circle cx="33.3" cy="71.4" r="2.6"/>
  <circle cx="6.7" cy="70.1" r="2.6"/>
  <circle cx="73.8" cy="49.8" r="2.6"/>
  <circle cx="47.4" cy="41.3" r="2.6"/>
  <circle cx="3.6" cy="39.9" r="2.6"/>
  <circle cx="112.2" cy="33.8" r="2.6"/>
  <circle cx="105.7" cy="3.6" r="2.6"/>
  <!-- Spica: the brand star, with diffraction spikes -->
  <circle cx="83.1" cy="92.1" r="12.0" opacity="0.16"/>
  <path d="M 45.1 92.1 L 83.1 90.1 L 121.1 92.1 L 83.1 94.1 Z" opacity="0.6"/>
  <path d="M 83.1 54.1 L 81.1 92.1 L 83.1 130.1 L 85.1 92.1 Z" opacity="0.6"/>
  <circle cx="83.1" cy="92.1" r="7.8"/>
</svg>
